<svg width="20" height="22" viewBox="0 0 20 22" fill="none" xmlns="http://www.w3.org/2000/svg">
<path d="M9.52383 0.6875C9.52383 0.307828 9.87187 0 10.2113 0C10.6281 0 10.9375 0.307828 10.9375 0.6875V1.40895C14.4137 1.75398 17.125 4.68359 17.125 8.25V9.50039C17.125 11.3781 17.8727 13.1785 19.2004 14.5105L19.3164 14.6266C19.673 14.9832 19.875 15.4301 19.875 15.9715C19.875 17.0242 19.0242 17.875 17.9715 17.875H2.52766C1.47707 17.875 0.625 17.0242 0.625 15.9715C0.625 15.4301 0.825492 14.9832 1.1823 14.6266L1.30047 14.5105C2.62863 13.1785 3.375 11.3781 3.375 9.50039V8.25C3.375 4.68359 6.08633 1.75398 9.5625 1.40895L9.52383 0.6875ZM10.2113 2.75C7.21211 2.75 4.71133 5.21211 4.71133 8.25V9.50039C4.71133 11.7434 3.85883 13.8961 2.27285 15.4816L2.15469 15.5977C2.05543 15.6965 1.96133 15.834 1.96133 15.9715C1.96133 16.2637 2.23633 16.5 2.52766 16.5H17.9715C18.2637 16.5 18.5 16.2637 18.5 15.9715C18.5 15.834 18.4441 15.6965 18.3453 15.5977L18.2293 15.4816C16.6395 13.8961 15.75 11.7434 15.75 9.50039V8.25C15.75 5.21211 13.2879 2.75 10.2113 2.75ZM10.2113 20.625C10.8473 20.625 11.3586 20.2426 11.5477 19.7098C11.6723 19.3488 12.0676 19.1254 12.4242 19.2887C12.7809 19.4176 12.9699 19.8086 12.8453 20.1652C12.4672 21.2352 11.4488 22 10.2113 22C9.05117 22 8.03281 21.2352 7.65469 20.1652C7.53008 19.8086 7.71914 19.4176 8.07578 19.2887C8.43242 19.1254 8.82773 19.3488 8.95234 19.7098C9.14141 20.2426 9.65273 20.625 10.2113 20.625Z" fill="#808080"/>
</svg>
