<svg width="22" height="18" viewBox="0 0 22 18" fill="none" xmlns="http://www.w3.org/2000/svg">
<path d="M21.7901 16.6167C22.0307 16.8058 22.0685 17.122 21.8829 17.3901C21.6938 17.6308 21.3466 17.6686 21.1095 17.4829L0.209262 0.981795C-0.0291354 0.793423 -0.0698245 0.447615 0.11841 0.209262C0.306611 -0.0291354 0.652487 -0.0698245 0.890703 0.11841L21.7901 16.6167ZM20.8138 9.22274C20.4632 10.0684 19.841 11.1821 18.961 12.2821L18.0982 11.6015C18.9095 10.5565 19.4835 9.55962 19.7998 8.79994C19.3426 7.66902 18.3526 6.01904 16.8711 4.67499C15.3895 3.29967 13.4199 2.20003 10.9999 2.20003C9.6318 2.20003 8.40807 2.55099 7.33558 3.10442L6.39716 2.36434C7.69995 1.60879 9.23993 1.06911 10.9999 1.06911C13.7774 1.06911 16.0014 2.3664 17.6204 3.87063C19.2292 5.36249 20.3051 7.11902 20.8138 8.37713C20.9273 8.64869 20.9273 8.95119 20.8138 9.22274ZM3.03842 5.3178L3.90157 5.99841C3.08895 7.01246 2.51731 8.04026 2.16909 8.769C2.65824 9.89992 3.6472 11.5499 5.12874 12.9249C6.61028 14.2999 8.57994 15.3998 10.969 15.3998C12.368 15.3998 13.5917 15.0492 14.6642 14.4958L15.6027 15.2348C14.2689 15.9911 12.7599 16.4998 10.969 16.4998C8.22245 16.4998 5.99841 15.2348 4.37937 13.7292C2.77133 12.2065 1.6961 10.4499 1.18461 9.22274C1.07186 8.95119 1.07186 8.64869 1.18461 8.37713C1.53763 7.53152 2.15878 6.41778 3.03842 5.3178ZM6.56903 8.769C6.56903 8.58338 6.61716 8.37369 6.64465 8.16401L7.70683 9.00275C7.80995 10.7318 9.21587 12.0999 10.969 12.0999C11.1924 12.0999 11.3849 12.0827 11.5671 12.0518L12.6293 12.8871C12.124 13.0899 11.574 13.1999 10.969 13.1999C8.56963 13.1999 6.56903 11.2302 6.56903 8.769ZM15.3998 8.769C15.3998 9.0165 15.3827 9.22618 15.3552 9.43587L14.293 8.59713C14.1899 6.86809 12.753 5.46905 10.969 5.46905C10.8074 5.46905 10.6149 5.51717 10.4327 5.54811L9.37055 4.71281C9.87586 4.51 10.4259 4.36906 10.969 4.36906C13.4302 4.36906 15.3998 6.36966 15.3998 8.769Z" fill="#808080"/>
</svg>
