<svg width="25" height="24" viewBox="0 0 25 24" fill="none" xmlns="http://www.w3.org/2000/svg">
<g clip-path="url(#clip0_225_146)">
<path d="M23.8385 12.2762C23.8385 11.4605 23.7724 10.6403 23.6313 9.83783H12.3125V14.4588H18.7942C18.5253 15.9492 17.661 17.2676 16.3955 18.1053V21.1037H20.2625C22.5333 19.0137 23.8385 15.9271 23.8385 12.2762Z" fill="#4285F4"/>
<path d="M12.3125 24.0009C15.549 24.0009 18.2783 22.9382 20.267 21.1039L16.4 18.1056C15.3241 18.8375 13.9352 19.252 12.3169 19.252C9.1863 19.252 6.53188 17.1399 5.57947 14.3003H1.58902V17.3913C3.62613 21.4434 7.77531 24.0009 12.3125 24.0009Z" fill="#34A853"/>
<path d="M5.57504 14.3004C5.07238 12.81 5.07238 11.1962 5.57504 9.70587V6.61493H1.589C-0.113001 10.0057 -0.113001 14.0006 1.589 17.3913L5.57504 14.3004Z" fill="#FBBC04"/>
<path d="M12.3125 4.74966C14.0233 4.7232 15.6768 5.36697 16.9159 6.54867L20.3419 3.12262C18.1725 1.0855 15.2932 -0.034466 12.3125 0.000808666C7.77531 0.000808666 3.62613 2.55822 1.58902 6.61481L5.57506 9.70575C6.52306 6.86173 9.18189 4.74966 12.3125 4.74966Z" fill="#EA4335"/>
</g>
<defs>
<clipPath id="clip0_225_146">
<rect width="24" height="24" fill="white" transform="translate(0.125)"/>
</clipPath>
</defs>
</svg>
