<svg width="22" height="18" viewBox="0 0 22 18" fill="none" xmlns="http://www.w3.org/2000/svg">
<path d="M0 1.42857C0 0.99446 0.351804 0.642853 0.785714 0.642853H21.2143C21.6464 0.642853 22 0.99446 22 1.42857C22 1.86267 21.6464 2.21428 21.2143 2.21428H0.785714C0.351804 2.21428 0 1.86267 0 1.42857ZM0 9.28571C0 8.85357 0.351804 8.5 0.785714 8.5H21.2143C21.6464 8.5 22 8.85357 22 9.28571C22 9.71785 21.6464 10.0714 21.2143 10.0714H0.785714C0.351804 10.0714 0 9.71785 0 9.28571ZM21.2143 17.9286H0.785714C0.351804 17.9286 0 17.575 0 17.1429C0 16.7107 0.351804 16.3571 0.785714 16.3571H21.2143C21.6464 16.3571 22 16.7107 22 17.1429C22 17.575 21.6464 17.9286 21.2143 17.9286Z" fill="#808080"/>
</svg>
