<svg width="163" height="20" viewBox="0 0 163 20" fill="none" xmlns="http://www.w3.org/2000/svg">
<path d="M8.5787 19.9857C7.06811 19.9857 5.62047 19.7879 4.23576 19.3923C2.85105 18.9787 1.73609 18.4482 0.890884 17.8008L2.3745 14.5099C3.18374 15.0853 4.13685 15.5619 5.23383 15.9395C6.34879 16.2992 7.47274 16.479 8.60568 16.479C9.46887 16.479 10.1612 16.3981 10.6827 16.2363C11.2222 16.0564 11.6179 15.8136 11.8696 15.5079C12.1214 15.2022 12.2473 14.8515 12.2473 14.4559C12.2473 13.9524 12.0495 13.5568 11.6538 13.269C11.2582 12.9633 10.7367 12.7205 10.0893 12.5407C9.44189 12.3429 8.72257 12.1631 7.93131 12.0012C7.15803 11.8214 6.37576 11.6056 5.5845 11.3538C4.81122 11.102 4.10089 10.7783 3.45349 10.3827C2.8061 9.98709 2.27559 9.46558 1.86198 8.81818C1.46635 8.17079 1.26853 7.34356 1.26853 6.3365C1.26853 5.25751 1.55626 4.27742 2.13173 3.39625C2.72517 2.49709 3.60635 1.78675 4.77526 1.26524C5.96215 0.725741 7.44576 0.455994 9.2261 0.455994C10.413 0.455994 11.5819 0.599859 12.7328 0.88759C13.8837 1.15734 14.8998 1.57095 15.781 2.12843L14.4322 5.44633C13.5511 4.9428 12.6699 4.57415 11.7887 4.34036C10.9075 4.0886 10.0443 3.96272 9.19912 3.96272C8.35391 3.96272 7.66156 4.06163 7.12206 4.25944C6.58257 4.45726 6.19593 4.71801 5.96215 5.04171C5.72836 5.34742 5.61147 5.70709 5.61147 6.1207C5.61147 6.60625 5.80929 7.00188 6.20492 7.30759C6.60055 7.59532 7.12206 7.82911 7.76946 8.00894C8.41685 8.18877 9.12719 8.3686 9.90047 8.54843C10.6917 8.72827 11.474 8.93507 12.2473 9.16885C13.0385 9.40264 13.7579 9.71734 14.4053 10.113C15.0527 10.5086 15.5742 11.0301 15.9698 11.6775C16.3834 12.3249 16.5902 13.1431 16.5902 14.1322C16.5902 15.1932 16.2935 16.1643 15.7 17.0455C15.1066 17.9267 14.2164 18.637 13.0295 19.1765C11.8606 19.716 10.377 19.9857 8.5787 19.9857Z" fill="#EC7656"/>
<path d="M28.7476 19.9857C27.255 19.9857 25.8703 19.743 24.5935 19.2574C23.3347 18.7719 22.2377 18.0885 21.3026 17.2073C20.3854 16.3262 19.6661 15.2921 19.1446 14.1052C18.6411 12.9184 18.3893 11.6236 18.3893 10.2209C18.3893 8.81818 18.6411 7.52339 19.1446 6.3365C19.6661 5.14961 20.3944 4.11557 21.3296 3.2344C22.2647 2.35322 23.3617 1.66986 24.6205 1.18431C25.8793 0.698766 27.246 0.455994 28.7207 0.455994C30.2133 0.455994 31.58 0.698766 32.8208 1.18431C34.0797 1.66986 35.1676 2.35322 36.0848 3.2344C37.0199 4.11557 37.7482 5.14961 38.2697 6.3365C38.7912 7.50541 39.052 8.8002 39.052 10.2209C39.052 11.6236 38.7912 12.9273 38.2697 14.1322C37.7482 15.3191 37.0199 16.3531 36.0848 17.2343C35.1676 18.0975 34.0797 18.7719 32.8208 19.2574C31.58 19.743 30.2223 19.9857 28.7476 19.9857ZM28.7207 16.2632C29.5659 16.2632 30.3391 16.1194 31.0405 15.8316C31.7598 15.5439 32.3892 15.1303 32.9287 14.5908C33.4682 14.0513 33.8818 13.4129 34.1696 12.6756C34.4753 11.9383 34.6281 11.12 34.6281 10.2209C34.6281 9.32171 34.4753 8.50348 34.1696 7.76616C33.8818 7.02885 33.4682 6.39045 32.9287 5.85095C32.4072 5.31146 31.7868 4.89784 31.0675 4.61011C30.3481 4.32238 29.5659 4.17852 28.7207 4.17852C27.8754 4.17852 27.0932 4.32238 26.3738 4.61011C25.6725 4.89784 25.0521 5.31146 24.5126 5.85095C23.9731 6.39045 23.5505 7.02885 23.2448 7.76616C22.957 8.50348 22.8132 9.32171 22.8132 10.2209C22.8132 11.102 22.957 11.9203 23.2448 12.6756C23.5505 13.4129 23.9641 14.0513 24.4856 14.5908C25.0251 15.1303 25.6545 15.5439 26.3738 15.8316C27.0932 16.1194 27.8754 16.2632 28.7207 16.2632Z" fill="#EC7656"/>
<path d="M51.3727 19.9857C49.9161 19.9857 48.5584 19.752 47.2995 19.2844C46.0587 18.7989 44.9797 18.1155 44.0626 17.2343C43.1454 16.3531 42.4261 15.3191 41.9046 14.1322C41.4011 12.9453 41.1493 11.6415 41.1493 10.2209C41.1493 8.8002 41.4011 7.49642 41.9046 6.30952C42.4261 5.12263 43.1454 4.0886 44.0626 3.20742C44.9977 2.32625 46.0857 1.65188 47.3265 1.18431C48.5674 0.698766 49.9251 0.455994 51.3997 0.455994C53.0362 0.455994 54.5108 0.743725 55.8236 1.31919C57.1543 1.87667 58.2693 2.70389 59.1685 3.80087L56.3631 6.39045C55.7157 5.65314 54.9964 5.10465 54.2051 4.74499C53.4138 4.36734 52.5506 4.17852 51.6155 4.17852C50.7343 4.17852 49.9251 4.32238 49.1878 4.61011C48.4505 4.89784 47.8121 5.31146 47.2726 5.85095C46.7331 6.39045 46.3105 7.02885 46.0048 7.76616C45.717 8.50348 45.5732 9.32171 45.5732 10.2209C45.5732 11.12 45.717 11.9383 46.0048 12.6756C46.3105 13.4129 46.7331 14.0513 47.2726 14.5908C47.8121 15.1303 48.4505 15.5439 49.1878 15.8316C49.9251 16.1194 50.7343 16.2632 51.6155 16.2632C52.5506 16.2632 53.4138 16.0834 54.2051 15.7237C54.9964 15.3461 55.7157 14.7796 56.3631 14.0243L59.1685 16.6139C58.2693 17.7109 57.1543 18.5471 55.8236 19.1226C54.5108 19.698 53.0272 19.9857 51.3727 19.9857Z" fill="#EC7656"/>
<path d="M62.1195 19.6621V0.77969H66.4894V19.6621H62.1195Z" fill="#EC7656"/>
<path d="M68.4889 19.6621L76.905 0.77969H81.221L89.6641 19.6621H85.0784L78.1728 2.99162H79.8992L72.9667 19.6621H68.4889ZM72.697 15.6158L73.8569 12.2979H83.5678L84.7547 15.6158H72.697Z" fill="#EC7656"/>
<path d="M91.6231 19.6621V0.77969H95.9931V16.1014H105.461V19.6621H91.6231Z" fill="#EC7656"/>
<path d="M107.903 19.6621V0.77969H111.517L122.658 14.375H120.905V0.77969H125.221V19.6621H121.633L110.465 6.06675H112.219V19.6621H107.903Z" fill="#EC7656"/>
<path d="M133.707 8.38658H142.798V11.7854H133.707V8.38658ZM134.031 16.1553H144.309V19.6621H129.688V0.77969H143.958V4.28641H134.031V16.1553Z" fill="#EC7656"/>
<path d="M151.697 19.6621V4.34036H145.654V0.77969H162.109V4.34036H156.067V19.6621H151.697Z" fill="#EC7656"/>
</svg>
