<svg width="23" height="22" viewBox="0 0 23 22" fill="none" xmlns="http://www.w3.org/2000/svg">
<path d="M20.0141 8.53906C19.3109 8.53906 18.6922 8.82969 18.2375 9.28438C16.5641 8.12656 14.3094 7.38125 11.8109 7.30156L13.1094 1.45156L17.2438 2.37969C17.2438 3.39219 18.0688 4.21719 19.0813 4.21719C20.1125 4.21719 20.9422 3.36875 20.9422 2.35625C20.9422 1.34375 20.1172 0.495313 19.0813 0.495313C18.3594 0.495313 17.7359 0.93125 17.4266 1.52656L12.8609 0.514063C12.6313 0.453125 12.4063 0.617188 12.3453 0.846875L10.9203 7.29688C8.44063 7.4 6.20938 8.14531 4.53125 9.30313C4.07657 8.82969 3.43438 8.53906 2.73125 8.53906C0.125005 8.53906 -0.72812 12.0359 1.65782 13.2313C1.57344 13.6016 1.53594 13.9953 1.53594 14.3891C1.53594 18.3172 5.96094 21.5 11.3938 21.5C16.85 21.5 21.275 18.3172 21.275 14.3891C21.275 13.9953 21.2328 13.5828 21.1297 13.2125C23.4688 12.0125 22.6063 8.53906 20.0141 8.53906ZM5.44063 13.4797C5.44063 12.4484 6.26563 11.6188 7.30157 11.6188C8.31407 11.6188 9.13907 12.4438 9.13907 13.4797C9.13907 14.4922 8.31407 15.3172 7.30157 15.3172C6.27032 15.3219 5.44063 14.4922 5.44063 13.4797ZM15.4859 17.8625C13.7797 19.5687 8.96563 19.5687 7.25938 17.8625C7.07188 17.6984 7.07188 17.4078 7.25938 17.2203C7.42344 17.0563 7.71407 17.0563 7.87813 17.2203C9.18125 18.5563 13.5031 18.5797 14.8625 17.2203C15.0266 17.0563 15.3172 17.0563 15.4813 17.2203C15.6734 17.4078 15.6734 17.6984 15.4859 17.8625ZM15.4484 15.3219C14.4359 15.3219 13.6109 14.4969 13.6109 13.4844C13.6109 12.4531 14.4359 11.6234 15.4484 11.6234C16.4797 11.6234 17.3094 12.4484 17.3094 13.4844C17.3047 14.4922 16.4797 15.3219 15.4484 15.3219Z" fill="#ED001C"/>
</svg>
