<svg width="22" height="22" viewBox="0 0 22 22" fill="none" xmlns="http://www.w3.org/2000/svg">
<path d="M21.7969 20.8259L15.7172 14.7461C17.0577 13.1821 17.8354 11.1584 17.8354 8.93704C17.8354 4.00018 13.8339 0 8.89838 0C3.96281 0 0 4.00147 0 8.93704C0 13.8726 4.00105 17.8741 8.89838 17.8741C11.1189 17.8741 13.1456 17.0594 14.7075 15.7193L20.7872 21.7991C20.9591 21.9301 21.1352 21.9989 21.3114 21.9989C21.4876 21.9989 21.6632 21.9318 21.7974 21.7974C22.0676 21.5305 22.0676 21.0923 21.7969 20.8259ZM8.93705 16.4991C4.73062 16.4991 1.37494 13.1048 1.37494 8.93704C1.37494 4.76929 4.73062 1.37493 8.93705 1.37493C13.1435 1.37493 16.4992 4.73062 16.4992 8.93704C16.4992 13.1435 13.1048 16.4991 8.93705 16.4991Z" fill="#808080"/>
</svg>
