<svg width="23" height="20" viewBox="0 0 23 20" fill="none" xmlns="http://www.w3.org/2000/svg">
<path d="M7.4508 19.0949C15.9414 19.0949 20.5854 12.0605 20.5854 5.96032C20.5854 5.76052 20.5854 5.56162 20.5719 5.36362C21.4753 4.71014 22.2552 3.90101 22.875 2.97412C22.0325 3.34744 21.1387 3.59227 20.2236 3.70042C21.1873 3.1235 21.9085 2.21612 22.2531 1.14712C21.3469 1.68483 20.3556 2.06378 19.3218 2.26762C18.6258 1.52754 17.7053 1.03747 16.7027 0.873262C15.7001 0.709052 14.6713 0.879853 13.7756 1.35923C12.8799 1.83861 12.1671 2.59985 11.7476 3.52513C11.3281 4.45042 11.2252 5.48818 11.4549 6.47782C9.61958 6.38581 7.82412 5.90887 6.18508 5.07795C4.54603 4.24704 3.10005 3.08072 1.941 1.65472C1.35068 2.67097 1.16988 3.874 1.43541 5.01887C1.70093 6.16374 2.39282 7.16436 3.3702 7.81702C2.63557 7.79525 1.91695 7.59707 1.275 7.23922C1.275 7.25812 1.275 7.27792 1.275 7.29772C1.27529 8.36352 1.64424 9.3964 2.31925 10.2212C2.99427 11.046 3.93381 11.6119 4.9785 11.8229C4.29888 12.0083 3.58582 12.0354 2.8941 11.9021C3.18908 12.8194 3.76338 13.6215 4.53666 14.1963C5.30995 14.7711 6.24355 15.0898 7.2069 15.1079C5.57226 16.3926 3.55295 17.09 1.4739 17.0879C1.10661 17.0872 0.739684 17.065 0.375 17.0213C2.48607 18.3761 4.94242 19.0947 7.4508 19.0913" fill="#1DA1F2"/>
</svg>
